<svg width="345" height="245" viewBox="0 0 345 245" fill="none" xmlns="http://www.w3.org/2000/svg">
<path d="M180.627 148.144C180.627 149.575 179.468 150.732 178.037 150.732C176.609 150.732 175.451 149.575 175.451 148.144C175.451 146.716 176.609 145.559 178.037 145.559C179.468 145.559 180.627 146.716 180.627 148.144Z" fill="#939598"/>
<path d="M161.609 146.075C149.562 161.303 122.94 167.444 122.94 167.444C122.94 167.444 122.163 134.727 131.827 122.514C141.49 110.298 164.057 112.376 164.057 112.376C164.057 112.376 173.655 130.85 161.609 146.075Z" fill="#D22428"/>
<path d="M159.901 138.904C151.51 149.51 133.003 153.818 133.003 153.818C133.003 153.818 132.505 131.063 139.237 122.555C145.969 114.047 161.648 115.46 161.648 115.46C161.648 115.46 168.293 128.297 159.901 138.904Z" fill="#FFF2F2"/>
<path d="M184.832 159.689C176.564 153.15 177.185 130.506 177.185 130.506C177.185 130.506 210.647 99.8236 213.961 102.445C224.567 110.836 188.144 162.31 184.832 159.689Z" fill="#E01E27"/>
<path d="M215.636 105.121C212.411 114.184 207.894 122.798 202.478 130.739C198.584 136.447 194.658 142.531 190.125 147.756C187.544 150.729 184.678 153.323 181.257 154.92C182.214 156.863 183.391 158.523 184.848 159.675C187.904 162.093 219.126 118.492 215.636 105.121Z" fill="#F5801F"/>
<path d="M113.677 103.364C121.942 109.903 143.837 104.091 143.837 104.091C143.837 104.091 165.997 64.4674 162.685 61.8463C152.078 53.4559 110.364 100.743 113.677 103.364Z" fill="#E01E27"/>
<path d="M159.687 60.8519C151.608 66.0724 144.262 72.4513 137.781 79.5481C133.121 84.6517 128.105 89.8714 124.064 95.4861C121.763 98.6821 119.898 102.066 119.131 105.763C117.02 105.278 115.134 104.516 113.677 103.363C110.621 100.945 145.87 60.5309 159.687 60.8519Z" fill="#F5801F"/>
<path d="M176.074 135.086C174.138 137.532 170.999 138.273 169.064 136.741L139.256 113.159C137.32 111.627 137.317 108.402 139.252 105.954L139.75 105.327C141.685 102.881 144.824 102.142 146.761 103.673L176.568 127.256C178.504 128.787 178.506 132.012 176.57 134.458L176.074 135.086Z" fill="#E01E27"/>
<path d="M247.163 7.1368C247.163 7.1368 206.845 0.187447 165.789 52.0795C145.703 77.4677 138.438 105.741 138.438 105.741L157.327 120.686L176.215 135.63C176.215 135.63 202.059 122.054 222.145 96.6663C263.201 44.7743 247.163 7.1368 247.163 7.1368Z" fill="white"/>
<path d="M174.369 103.988C170.666 102.668 166.507 106.112 163.507 107.887C162.209 108.655 159.088 110.731 157.816 108.781C155.54 105.298 158.226 98.4562 159.284 95.0553C161.939 86.5315 165.624 78.1263 169.272 69.9811C176.837 53.0931 188.905 39.7579 203.934 29.1432C210.978 24.1696 218.433 19.6739 226.232 15.9746C233.099 12.7211 240.68 11.2129 247.289 7.4578C247.21 7.24933 247.163 7.1368 247.163 7.1368C247.163 7.1368 206.845 0.187447 165.789 52.0795C145.703 77.4677 138.438 105.741 138.438 105.741L176.215 135.63C176.215 135.63 176.894 135.272 178.104 134.575C170.825 126.84 168.943 114.316 174.369 103.988Z" fill="#D1D3D4"/>
<path d="M249.089 40.8214C252.657 19.9062 247.22 7.13534 247.22 7.13534C247.22 7.13534 233.54 4.78283 214.007 13.0668L249.089 40.8214Z" fill="#E01E27"/>
<path d="M219.553 80.0955C211.674 90.0507 197.217 91.7377 187.261 83.8602C177.303 75.981 175.62 61.5249 183.497 51.5689C191.375 41.6119 205.83 39.925 215.789 47.8033C225.746 55.6807 227.431 70.1386 219.553 80.0955Z" fill="#E01E27"/>
<path d="M215.308 76.7522C209.273 84.3793 198.2 85.6702 190.573 79.6359C186.549 76.453 184.286 71.8596 183.935 67.1084C183.846 65.8671 183.881 64.6172 184.061 63.3794C184.143 62.7636 184.259 62.1574 184.412 61.5625C184.822 59.9087 185.475 58.3037 186.393 56.7886C186.773 56.1361 187.207 55.5072 187.687 54.8992C193.722 47.273 204.803 45.9855 212.424 52.0155C216.208 55.0091 218.432 59.2475 218.976 63.6865C219.186 65.3944 219.146 67.1406 218.848 68.8468C218.748 69.4574 218.604 70.061 218.436 70.6524C218.098 71.8369 217.631 73.0014 217.031 74.1135C216.55 75.0312 215.974 75.9095 215.308 76.7522Z" fill="#00B4A8"/>
<path d="M217.746 68.6113L184.432 61.5642C184.842 59.9104 185.496 58.3054 186.413 56.7903L218.657 63.6158C218.597 65.301 218.295 66.9845 217.746 68.6113Z" fill="#61C7C8"/>
<path d="M218.996 68.3001C219.212 66.7658 219.223 65.2131 219.036 63.6849L219.038 63.6858C219.125 64.4002 219.17 65.1207 219.17 65.8421C219.169 66.6629 219.112 67.4845 218.996 68.3001Z" fill="#61C7C8"/>
<path d="M215.011 73.6969L183.934 67.1191C183.904 66.6925 183.888 66.2651 183.888 65.8368C183.887 65.0204 183.943 64.2022 184.061 63.3901L217.029 70.3657C216.492 71.5249 215.821 72.6423 215.011 73.6969Z" fill="#61C7C8"/>
<path d="M201.523 83.4481C197.697 83.4481 193.843 82.2069 190.609 79.6485C189.705 78.9332 188.891 78.1473 188.167 77.3038C188.891 78.1465 189.705 78.9324 190.608 79.6468C193.842 82.206 197.696 83.4472 201.523 83.4472C206.72 83.4472 211.868 81.1558 215.343 76.763C216.009 75.9204 216.585 75.0421 217.067 74.1244C217.667 73.0123 218.133 71.8478 218.472 70.6633C218.552 70.3807 218.626 70.0946 218.693 69.8067C218.127 72.27 217.018 74.6495 215.346 76.7639C211.869 81.1575 206.721 83.4481 201.523 83.4481ZM188.163 77.3004C188.159 77.296 188.155 77.2916 188.152 77.2873C188.155 77.2916 188.16 77.296 188.163 77.3004ZM218.86 68.9946C218.869 68.9493 218.877 68.9039 218.883 68.8577C218.916 68.6763 218.945 68.4939 218.97 68.3116C218.938 68.5393 218.902 68.767 218.86 68.9946Z" fill="#96471A"/>
<path d="M201.52 83.4399C197.693 83.4399 193.84 82.1986 190.605 79.6394C189.702 78.925 188.888 78.1391 188.164 77.2965C188.163 77.2956 188.161 77.2939 188.16 77.293C188.157 77.2886 188.152 77.2843 188.149 77.2799C188.145 77.2747 188.139 77.2694 188.135 77.2633C185.666 74.3753 184.26 70.826 183.979 67.1817C184.878 70.8496 186.956 74.2575 190.146 76.7818C193.381 79.3402 197.234 80.5814 201.061 80.5814C206.259 80.5814 211.406 78.2909 214.882 73.8981C214.936 73.8292 214.991 73.7594 215.044 73.6897L217.064 74.1171C216.582 75.0347 216.007 75.9131 215.34 76.7557C211.865 81.1484 206.717 83.4399 201.52 83.4399ZM218.469 70.6559L217.062 70.3585C217.326 69.7863 217.558 69.2036 217.758 68.6131L218.881 68.8503C218.874 68.8966 218.866 68.9419 218.857 68.9873C218.808 69.2585 218.752 69.5298 218.691 69.7994C218.623 70.0872 218.549 70.3733 218.469 70.6559ZM219.007 63.6891L218.669 63.6176C218.693 62.9512 218.679 62.2848 218.628 61.621C218.794 62.3022 218.922 62.9939 219.007 63.6891Z" fill="#00867F"/>
<path d="M218.849 68.8497L217.726 68.6124C218.276 66.9856 218.578 65.3022 218.637 63.6169L218.975 63.6885C219.162 65.2167 219.151 66.7693 218.935 68.3036C218.91 68.4859 218.881 68.6682 218.849 68.8497Z" fill="#269096"/>
<path d="M217.115 74.1114L215.095 73.684C215.905 72.6294 216.577 71.512 217.113 70.3528L218.52 70.6502C218.181 71.8348 217.715 72.9992 217.115 74.1114Z" fill="#269096"/>
<path d="M49.8311 60.4076V68.2458C49.8311 68.5145 50.0501 68.7326 50.3196 68.7326C50.5883 68.7326 50.8063 68.5145 50.8063 68.2458V60.4076C50.8063 60.1381 50.5883 59.92 50.3196 59.92C50.0501 59.92 49.8311 60.1381 49.8311 60.4076Z" fill="white"/>
<path d="M54.187 63.8209H46.4178C46.1491 63.8209 45.9302 64.039 45.9302 64.3085C45.9302 64.5772 46.1491 64.7952 46.4178 64.7952H54.187C54.4557 64.7952 54.6746 64.5772 54.6746 64.3085C54.6746 64.039 54.4557 63.8209 54.187 63.8209Z" fill="white"/>
<path d="M3.90091 162.512V170.35C3.90091 170.62 4.11898 170.838 4.38851 170.838C4.65717 170.838 4.8761 170.62 4.8761 170.35V162.512C4.8761 162.243 4.65717 162.025 4.38851 162.025C4.11898 162.025 3.90091 162.243 3.90091 162.512Z" fill="white"/>
<path d="M8.25776 165.948H0.487598C0.218939 165.948 0 166.166 0 166.436C0 166.705 0.218939 166.923 0.487598 166.923H8.25776C8.52641 166.923 8.74448 166.705 8.74448 166.436C8.74448 166.166 8.52641 165.948 8.25776 165.948Z" fill="white"/>
<path d="M60.6488 120.769H70.4635C70.7322 120.769 70.9502 120.551 70.9502 120.282C70.9502 120.013 70.7322 119.795 70.4635 119.795H60.6488C60.3792 119.795 60.1612 120.013 60.1612 120.282C60.1612 120.551 60.3792 120.769 60.6488 120.769Z" fill="white"/>
<path d="M73.803 120.769H76.5298C76.7984 120.769 77.0165 120.551 77.0165 120.282C77.0165 120.013 76.7984 119.795 76.5298 119.795H73.803C73.5344 119.795 73.3154 120.013 73.3154 120.282C73.3154 120.551 73.5344 120.769 73.803 120.769Z" fill="white"/>
<path d="M78.9741 120.769H81.7008C81.9695 120.769 82.1884 120.551 82.1884 120.282C82.1884 120.013 81.9695 119.795 81.7008 119.795H78.9741C78.7054 119.795 78.4865 120.013 78.4865 120.282C78.4865 120.551 78.7054 120.769 78.9741 120.769Z" fill="white"/>
<path d="M62.5539 124.172H72.3695C72.6382 124.172 72.8571 123.953 72.8571 123.684C72.8571 123.415 72.6382 123.197 72.3695 123.197H62.5539C62.2853 123.197 62.0663 123.415 62.0663 123.684C62.0663 123.953 62.2853 124.172 62.5539 124.172Z" fill="white"/>
<path d="M75.7082 124.172H78.4349C78.7036 124.172 78.9225 123.953 78.9225 123.684C78.9225 123.415 78.7036 123.197 78.4349 123.197H75.7082C75.4395 123.197 75.2206 123.415 75.2206 123.684C75.2206 123.953 75.4395 124.172 75.7082 124.172Z" fill="white"/>
<path d="M80.8792 124.172H83.6042C83.8728 124.172 84.0909 123.953 84.0909 123.684C84.0909 123.415 83.8728 123.197 83.6042 123.197H80.8792C80.6106 123.197 80.3916 123.415 80.3916 123.684C80.3916 123.953 80.6106 124.172 80.8792 124.172Z" fill="white"/>
<path d="M12.9161 235.688H22.7317C23.0004 235.688 23.2193 235.47 23.2193 235.201C23.2193 234.931 23.0004 234.713 22.7317 234.713H12.9161C12.6474 234.713 12.4285 234.931 12.4285 235.201C12.4285 235.47 12.6474 235.688 12.9161 235.688Z" fill="white"/>
<path d="M26.0705 235.688H28.7972C29.0659 235.688 29.2848 235.47 29.2848 235.201C29.2848 234.931 29.0659 234.713 28.7972 234.713H26.0705C25.8018 234.713 25.5829 234.931 25.5829 235.201C25.5829 235.47 25.8018 235.688 26.0705 235.688Z" fill="white"/>
<path d="M31.2414 235.688H33.9663C34.235 235.688 34.4531 235.47 34.4531 235.201C34.4531 234.931 34.235 234.713 33.9663 234.713H31.2414C30.9727 234.713 30.7538 234.931 30.7538 235.201C30.7538 235.47 30.9727 235.688 31.2414 235.688Z" fill="white"/>
<path d="M14.8212 239.09H24.6351C24.9037 239.09 25.1218 238.872 25.1218 238.602C25.1218 238.333 24.9037 238.115 24.6351 238.115H14.8212C14.5525 238.115 14.3336 238.333 14.3336 238.602C14.3336 238.872 14.5525 239.09 14.8212 239.09Z" fill="white"/>
<path d="M27.9755 239.09H30.7022C30.9708 239.09 31.1889 238.872 31.1889 238.602C31.1889 238.333 30.9708 238.115 30.7022 238.115H27.9755C27.7059 238.115 27.4879 238.333 27.4879 238.602C27.4879 238.872 27.7059 239.09 27.9755 239.09Z" fill="white"/>
<path d="M33.1465 239.09H35.8732C36.1419 239.09 36.36 238.872 36.36 238.602C36.36 238.333 36.1419 238.115 35.8732 238.115H33.1465C32.8779 238.115 32.6589 238.333 32.6589 238.602C32.6589 238.872 32.8779 239.09 33.1465 239.09Z" fill="white"/>
<path d="M214.46 0.487598V8.32579C214.46 8.59445 214.679 8.81339 214.949 8.81339C215.217 8.81339 215.435 8.59445 215.435 8.32579V0.487598C215.435 0.218939 215.217 0 214.949 0C214.679 0 214.46 0.218939 214.46 0.487598Z" fill="white"/>
<path d="M218.816 3.92358H211.047C210.777 3.92358 210.559 4.14165 210.559 4.41031C210.559 4.67984 210.777 4.89791 211.047 4.89791H218.816C219.085 4.89791 219.303 4.67984 219.303 4.41031C219.303 4.14165 219.085 3.92358 218.816 3.92358Z" fill="white"/>
<path d="M307.629 123.903V131.741C307.629 132.01 307.848 132.228 308.117 132.228C308.385 132.228 308.604 132.01 308.604 131.741V123.903C308.604 123.633 308.385 123.415 308.117 123.415C307.848 123.415 307.629 123.633 307.629 123.903Z" fill="white"/>
<path d="M311.985 127.339H304.216C303.947 127.339 303.728 127.558 303.728 127.826C303.728 128.095 303.947 128.314 304.216 128.314H311.985C312.253 128.314 312.472 128.095 312.472 127.826C312.472 127.558 312.253 127.339 311.985 127.339Z" fill="white"/>
<path d="M284.287 53.1382V60.9756C284.287 61.2451 284.505 61.4632 284.775 61.4632C285.043 61.4632 285.262 61.2451 285.262 60.9756V53.1382C285.262 52.8687 285.043 52.6506 284.775 52.6506C284.505 52.6506 284.287 52.8687 284.287 53.1382Z" fill="white"/>
<path d="M288.642 56.5742H280.874C280.605 56.5742 280.386 56.7932 280.386 57.0618C280.386 57.3313 280.605 57.5494 280.874 57.5494H288.642C288.911 57.5494 289.13 57.3313 289.13 57.0618C289.13 56.7932 288.911 56.5742 288.642 56.5742Z" fill="white"/>
<path d="M107.627 27.6764H117.442C117.71 27.6764 117.929 27.4574 117.929 27.1888C117.929 26.9201 117.71 26.7012 117.442 26.7012H107.627C107.358 26.7012 107.139 26.9201 107.139 27.1888C107.139 27.4574 107.358 27.6764 107.627 27.6764Z" fill="white"/>
<path d="M120.781 27.6764H123.507C123.776 27.6764 123.994 27.4574 123.994 27.1888C123.994 26.9201 123.776 26.7012 123.507 26.7012H120.781C120.513 26.7012 120.294 26.9201 120.294 27.1888C120.294 27.4574 120.513 27.6764 120.781 27.6764Z" fill="white"/>
<path d="M125.952 27.6764H128.678C128.948 27.6764 129.166 27.4574 129.166 27.1888C129.166 26.9201 128.948 26.7012 128.678 26.7012H125.952C125.683 26.7012 125.465 26.9201 125.465 27.1888C125.465 27.4574 125.683 27.6764 125.952 27.6764Z" fill="white"/>
<path d="M109.532 31.0776H119.345C119.615 31.0776 119.833 30.8595 119.833 30.59C119.833 30.3213 119.615 30.1033 119.345 30.1033H109.532C109.263 30.1033 109.044 30.3213 109.044 30.59C109.044 30.8595 109.263 31.0776 109.532 31.0776Z" fill="white"/>
<path d="M122.686 31.0776H125.411C125.68 31.0776 125.898 30.8595 125.898 30.59C125.898 30.3213 125.68 30.1033 125.411 30.1033H122.686C122.417 30.1033 122.199 30.3213 122.199 30.59C122.199 30.8595 122.417 31.0776 122.686 31.0776Z" fill="white"/>
<path d="M127.857 31.0776H130.584C130.854 31.0776 131.072 30.8595 131.072 30.59C131.072 30.3213 130.854 30.1033 130.584 30.1033H127.857C127.589 30.1033 127.37 30.3213 127.37 30.59C127.37 30.8595 127.589 31.0776 127.857 31.0776Z" fill="white"/>
<path d="M248.151 95.5407H257.966C258.235 95.5407 258.453 95.3227 258.453 95.054C258.453 94.7845 258.235 94.5664 257.966 94.5664H248.151C247.882 94.5664 247.664 94.7845 247.664 95.054C247.664 95.3227 247.882 95.5407 248.151 95.5407Z" fill="white"/>
<path d="M261.305 95.5407H264.031C264.3 95.5407 264.519 95.3227 264.519 95.054C264.519 94.7845 264.3 94.5664 264.031 94.5664H261.305C261.036 94.5664 260.818 94.7845 260.818 95.054C260.818 95.3227 261.036 95.5407 261.305 95.5407Z" fill="white"/>
<path d="M266.476 95.5407H269.201C269.47 95.5407 269.689 95.3227 269.689 95.054C269.689 94.7845 269.47 94.5664 269.201 94.5664H266.476C266.208 94.5664 265.989 94.7845 265.989 95.054C265.989 95.3227 266.208 95.5407 266.476 95.5407Z" fill="white"/>
<path d="M250.056 98.9437H259.873C260.142 98.9437 260.361 98.7248 260.361 98.4561C260.361 98.1875 260.142 97.9685 259.873 97.9685H250.056C249.787 97.9685 249.568 98.1875 249.568 98.4561C249.568 98.7248 249.787 98.9437 250.056 98.9437Z" fill="white"/>
<path d="M263.211 98.9437H265.934C266.202 98.9437 266.421 98.7248 266.421 98.4561C266.421 98.1875 266.202 97.9685 265.934 97.9685H263.211C262.942 97.9685 262.723 98.1875 262.723 98.4561C262.723 98.7248 262.942 98.9437 263.211 98.9437Z" fill="white"/>
<path d="M268.381 98.9437H271.106C271.375 98.9437 271.593 98.7248 271.593 98.4561C271.593 98.1875 271.375 97.9685 271.106 97.9685H268.381C268.113 97.9685 267.894 98.1875 267.894 98.4561C267.894 98.7248 268.113 98.9437 268.381 98.9437Z" fill="white"/>
<path d="M299.827 236.674V244.512C299.827 244.782 300.045 245 300.315 245C300.583 245 300.802 244.782 300.802 244.512V236.674C300.802 236.405 300.583 236.187 300.315 236.187C300.045 236.187 299.827 236.405 299.827 236.674Z" fill="white"/>
<path d="M304.182 240.111H296.414C296.144 240.111 295.926 240.329 295.926 240.599C295.926 240.867 296.144 241.086 296.414 241.086H304.182C304.451 241.086 304.67 240.867 304.67 240.599C304.67 240.329 304.451 240.111 304.182 240.111Z" fill="white"/>
<path d="M320.817 188.56H330.631C330.9 188.56 331.118 188.342 331.118 188.072C331.118 187.804 330.9 187.585 330.631 187.585H320.817C320.548 187.585 320.33 187.804 320.33 188.072C320.33 188.342 320.548 188.56 320.817 188.56Z" fill="white"/>
<path d="M333.972 188.56H336.696C336.965 188.56 337.183 188.342 337.183 188.072C337.183 187.804 336.965 187.585 336.696 187.585H333.972C333.703 187.585 333.484 187.804 333.484 188.072C333.484 188.342 333.703 188.56 333.972 188.56Z" fill="white"/>
<path d="M339.142 188.56H341.869C342.138 188.56 342.356 188.342 342.356 188.072C342.356 187.804 342.138 187.585 341.869 187.585H339.142C338.874 187.585 338.655 187.804 338.655 188.072C338.655 188.342 338.874 188.56 339.142 188.56Z" fill="white"/>
<path d="M322.722 191.961H332.536C332.805 191.961 333.023 191.743 333.023 191.474C333.023 191.205 332.805 190.987 332.536 190.987H322.722C322.454 190.987 322.235 191.205 322.235 191.474C322.235 191.743 322.454 191.961 322.722 191.961Z" fill="white"/>
<path d="M335.877 191.961H338.603C338.872 191.961 339.09 191.743 339.09 191.474C339.09 191.205 338.872 190.987 338.603 190.987H335.877C335.608 190.987 335.389 191.205 335.389 191.474C335.389 191.743 335.608 191.961 335.877 191.961Z" fill="white"/>
<path d="M341.048 191.961H343.776C344.045 191.961 344.263 191.743 344.263 191.474C344.263 191.205 344.045 190.987 343.776 190.987H341.048C340.778 190.987 340.56 191.205 340.56 191.474C340.56 191.743 340.778 191.961 341.048 191.961Z" fill="white"/>
</svg>
